<?xml version="1.0" standalone="no"?>
<!DOCTYPE svg PUBLIC "-//W3C//DTD SVG 20010904//EN"
 "http://www.w3.org/TR/2001/REC-SVG-20010904/DTD/svg10.dtd">
<svg version="1.0" xmlns="http://www.w3.org/2000/svg"
 width="1400.000000pt" height="1400.000000pt" viewBox="0 0 1400.000000 1400.000000"
 preserveAspectRatio="xMidYMid meet">
<metadata>
Created by potrace 1.11, written by Peter Selinger 2001-2013
</metadata>
<g transform="translate(0.000000,1400.000000) scale(0.100000,-0.100000)"
fill="#000000" stroke="none">
<path d="M792 10226 c2 -355 1 -647 -2 -647 -3 -1 -180 -2 -395 -3 l-390 -1 0
-2635 0 -2635 393 0 392 1 1 -46 c0 -25 0 -287 0 -582 l-1 -538 23 -1 c128 -4
1279 1 1332 5 162 14 174 16 365 50 14 2 26 5 28 7 2 2 6 3 55 12 52 11 206
62 272 91 30 14 55 22 55 18 0 -4 4 -2 8 3 4 6 30 21 57 35 223 110 391 251
538 451 73 99 181 344 201 456 3 14 10 49 16 77 5 28 12 76 15 106 6 73 11
110 16 114 2 1 38 24 79 51 111 71 205 153 305 266 44 50 155 221 149 230 -2
4 0 10 6 14 26 16 112 261 126 360 3 17 7 41 10 55 18 81 24 316 11 440 -18
183 -94 398 -191 544 -80 121 -239 277 -348 341 -94 56 -129 75 -138 75 -5 0
-10 3 -10 8 -1 4 -2 88 -4 186 l-2 180 100 102 c111 112 118 121 135 151 6 12
17 28 23 35 45 49 146 269 163 358 2 8 11 51 20 95 17 76 29 385 15 385 -3 0
-6 19 -6 43 -6 155 -104 414 -211 554 -106 139 -240 250 -403 336 l-85 44 7
34 c8 39 3 306 -7 359 -3 19 -8 45 -11 58 -2 12 -6 34 -9 50 -23 118 -111 311
-190 417 -79 105 -209 224 -320 292 -63 38 -268 132 -305 139 -3 0 -12 4 -20
7 -39 16 -244 61 -330 72 -19 3 -55 8 -80 11 -25 4 -363 9 -753 11 l-707 4 2
-645z m1308 310 c130 -12 154 -15 190 -20 119 -19 243 -55 345 -100 33 -15 60
-26 60 -24 0 2 31 -18 68 -44 37 -27 69 -48 71 -48 2 0 28 -24 57 -52 177
-172 253 -359 264 -642 l2 -78 -41 7 c-22 4 -53 9 -68 11 -16 2 -43 6 -60 9
-93 15 -240 17 -995 19 -452 1 -825 4 -828 8 -4 4 -6 148 -6 320 1 172 1 322
1 333 0 11 -1 40 -1 65 -1 25 -1 59 0 75 1 17 1 50 0 75 -1 25 -1 56 0 70 l1
25 433 -1 c237 -1 466 -4 507 -8z m-1310 -1440 c0 -83 2 -537 3 -1009 1 -471
0 -858 -3 -858 -3 -1 -98 -2 -212 -3 l-208 -2 -1 26 c0 29 0 1969 0 1986 1 7
70 10 211 10 l210 1 0 -151z m490 140 c0 -5 6 -3 13 3 8 6 16 9 18 7 2 -3 38
-8 79 -11 41 -4 80 -11 85 -17 6 -5 10 -138 11 -353 l0 -345 -163 0 c-90 0
-163 3 -164 8 -6 78 -2 713 5 715 21 7 116 1 116 -7z m1510 4 c0 -3 19 -5 42
-4 47 1 244 -29 253 -38 10 -9 -50 -133 -100 -208 -41 -62 -141 -171 -191
-210 -68 -52 -94 -70 -102 -70 -5 0 -17 21 -27 48 -56 148 -153 299 -265 411
-38 39 -70 72 -70 74 0 2 104 4 230 3 127 0 230 -3 230 -6z m-775 -218 c142
-102 242 -238 302 -411 16 -47 10 -60 -32 -62 -11 0 -29 -2 -40 -4 -11 -3 -33
-7 -50 -10 -16 -3 -98 -8 -181 -11 l-151 -7 0 296 -1 296 52 -26 c28 -14 74
-42 101 -61z m1468 11 c9 -3 17 -8 17 -12 0 -4 13 -15 30 -24 16 -10 49 -37
73 -60 122 -120 193 -249 237 -437 17 -73 21 -299 5 -388 -6 -40 -10 -72 -8
-72 2 0 1 -6 -4 -12 -4 -7 -8 -17 -10 -23 -11 -52 -32 -113 -59 -173 -22 -48
-97 -172 -104 -171 -3 0 -20 30 -38 67 -73 151 -231 321 -399 430 -75 48 -303
160 -343 168 -50 11 -145 53 -145 65 0 8 43 37 97 66 253 133 439 316 553 543
35 70 36 71 58 55 12 -8 30 -18 40 -22z m-2160 -834 c110 2 109 2 137 -1 l25
-3 1 -463 c0 -325 -3 -465 -11 -472 -6 -5 -31 -11 -55 -14 -25 -3 -65 -8 -90
-11 -25 -3 -71 -7 -103 -9 -63 -4 -74 5 -71 54 3 40 4 82 3 135 -1 28 0 64 0
80 1 17 1 178 0 359 0 180 3 332 8 336 10 10 55 18 66 12 5 -2 46 -4 90 -3z
m781 -5 c134 -5 236 -20 247 -36 9 -14 -17 -139 -46 -221 -14 -39 -27 -76 -28
-82 -20 -67 -136 -234 -222 -318 -53 -51 -168 -137 -185 -137 -4 0 -7 179 -6
398 l1 397 63 1 c35 1 66 5 69 8 3 3 10 3 16 -1 6 -3 47 -8 91 -9z m761 -187
c102 -53 229 -154 301 -239 67 -79 139 -210 173 -317 21 -65 22 -64 -109 -119
-46 -20 -81 -33 -90 -34 -3 0 -16 -5 -30 -10 -14 -5 -36 -12 -50 -14 -14 -3
-41 -9 -60 -14 -33 -8 -76 -16 -145 -26 -53 -8 -685 -11 -685 -3 0 4 23 24 51
44 162 116 301 281 393 462 29 60 83 202 91 243 2 8 4 15 5 15 1 0 3 12 4 26
6 56 18 55 151 -14z m-2080 -1109 c4 -4 9 -2026 5 -2248 0 -14 -28 -16 -210
-16 -144 -1 -210 3 -211 10 -3 66 0 2247 4 2253 6 9 402 11 412 1z m579 -3
c60 -3 112 -8 115 -11 3 -3 6 -221 7 -484 l0 -478 -163 0 c-148 -1 -191 5
-163 23 6 4 7 11 4 17 -4 6 -6 104 -5 217 1 113 2 213 1 221 -1 52 -2 109 -1
135 1 17 0 50 -1 75 -2 25 0 59 3 77 4 18 4 35 1 38 -8 7 -5 162 3 175 3 5 24
7 48 5 23 -2 91 -7 151 -10z m1512 1 c55 -4 111 -8 123 -11 13 -2 42 -6 66 -9
50 -6 125 -22 180 -37 96 -28 120 -38 119 -51 -13 -113 -107 -311 -199 -415
-68 -78 -88 -97 -155 -151 -35 -28 -68 -48 -72 -44 -4 4 -9 19 -12 32 -2 14
-5 26 -7 28 -1 1 -3 7 -4 12 -1 6 -4 12 -5 15 -1 3 -3 8 -5 13 -14 51 -79 176
-133 257 -56 83 -166 200 -242 258 -30 23 -61 48 -68 55 -7 6 -17 12 -21 12
-4 0 -20 10 -34 23 l-27 23 198 -2 c108 -1 242 -4 298 -8z m-980 -106 c7 0 25
-5 41 -12 15 -6 31 -11 36 -10 4 1 7 -2 7 -8 0 -5 6 -10 14 -10 36 0 220 -119
291 -189 160 -156 253 -327 289 -528 5 -31 3 -33 -32 -42 -173 -47 -315 -64
-532 -65 l-155 -1 -1 435 c0 239 1 439 4 443 2 5 9 4 15 -2 6 -6 17 -11 23
-11z m1901 -248 c85 -85 113 -117 113 -132 0 -5 6 -13 13 -17 22 -13 95 -168
122 -257 40 -132 49 -200 49 -361 0 -110 -4 -155 -19 -225 -3 -14 -7 -34 -9
-45 -20 -97 -124 -335 -147 -335 -5 0 -9 -6 -9 -13 0 -18 -157 -197 -173 -197
-4 0 -26 69 -32 99 -4 21 -40 111 -71 179 -50 110 -167 263 -262 342 -29 25
-61 52 -70 61 -27 26 -132 92 -197 124 -33 17 -63 34 -66 38 -3 5 -9 8 -13 8
-3 -1 -7 2 -8 7 -2 4 22 21 52 37 62 33 168 105 215 144 85 72 223 223 255
279 9 15 27 45 42 68 34 54 93 178 109 232 7 23 16 42 20 42 5 0 44 -35 86
-78z m-1192 -896 c-2 -6 -6 -29 -9 -51 -31 -251 -172 -496 -381 -661 -27 -21
-52 -42 -55 -45 -18 -20 -230 -126 -286 -143 -20 -6 -20 -6 -20 418 1 233 3
427 6 429 3 3 82 8 175 12 173 6 205 8 285 19 25 3 63 8 85 11 22 3 51 8 65
11 14 3 33 6 42 6 10 -1 20 3 22 7 8 12 75 0 71 -13z m-1126 -52 c12 -11 8
-944 -3 -945 -47 -4 -146 -10 -223 -13 l-93 -4 -1 32 c0 17 0 234 -1 481 0
400 1 450 15 450 9 0 18 2 20 5 7 7 279 1 286 -6z m1491 -113 c0 -5 9 -12 19
-16 11 -3 56 -41 100 -84 84 -83 160 -189 200 -281 13 -30 27 -62 31 -70 9
-18 42 -146 45 -177 2 -13 6 -41 10 -63 7 -39 6 -40 -24 -46 -17 -4 -31 -11
-31 -17 0 -6 -3 -8 -6 -4 -3 3 -25 -1 -47 -9 -45 -16 -195 -49 -274 -60 -26
-4 -61 -8 -78 -11 -33 -4 -525 -12 -525 -8 0 1 26 22 58 46 104 79 213 186
260 256 14 21 29 40 33 43 25 18 141 254 155 315 1 6 9 29 18 53 8 23 15 45
15 47 0 12 14 81 18 88 6 10 23 9 23 -2z m410 -1092 c0 -3 -6 -27 -14 -52 -8
-26 -13 -47 -11 -47 6 0 -42 -133 -65 -180 -73 -149 -192 -290 -320 -377 -30
-21 -57 -40 -60 -43 -27 -27 -258 -134 -313 -144 -6 -1 -36 -10 -65 -19 -30
-9 -79 -21 -110 -27 -32 -5 -68 -12 -82 -15 -39 -8 -103 -15 -182 -21 -105 -7
-988 -8 -995 0 -5 5 -7 109 -4 191 1 17 1 166 0 333 -1 167 2 306 5 310 4 4
386 7 849 8 463 1 865 5 892 8 28 3 68 8 90 10 41 5 63 8 170 27 61 11 166 36
171 42 6 5 44 3 44 -4z"/>
<path d="M6949 10816 c-3 -3 -72 -20 -155 -37 -82 -17 -153 -35 -158 -40 -5
-5 2 -44 19 -96 16 -48 30 -91 31 -95 1 -5 2 -9 4 -10 1 -2 3 -12 5 -22 4 -20
32 -111 42 -136 3 -8 7 -20 9 -27 3 -17 64 -216 71 -233 6 -16 10 -29 17 -57
3 -10 5 -18 6 -18 1 0 3 -7 5 -15 2 -8 15 -51 29 -95 15 -44 28 -87 30 -95 2
-8 6 -22 9 -30 3 -8 26 -80 50 -160 25 -80 57 -183 72 -230 15 -47 31 -98 35
-115 4 -16 49 -163 100 -325 51 -162 94 -304 97 -315 3 -11 7 -27 11 -35 3 -8
6 -17 7 -20 3 -10 67 -216 78 -250 6 -19 12 -37 12 -40 1 -3 5 -12 8 -20 4 -8
8 -24 10 -35 2 -11 7 -27 10 -35 9 -23 60 -195 58 -195 -1 0 3 -13 9 -30 7
-16 20 -58 30 -93 l19 -62 -25 -73 c-14 -39 -26 -79 -28 -87 -2 -8 -32 -100
-66 -205 -85 -259 -169 -522 -176 -547 -1 -5 -3 -10 -4 -13 -1 -3 -3 -8 -5
-12 -1 -5 -4 -15 -8 -23 -8 -22 -136 -423 -138 -435 -1 -5 -9 -26 -17 -44 -7
-19 -15 -42 -17 -50 -6 -27 -24 -67 -24 -53 -1 6 -1 13 0 15 0 1 -5 15 -11 31
-6 16 -27 83 -46 150 -20 66 -45 150 -55 186 -11 36 -22 72 -24 80 -2 8 -10
34 -19 58 -8 23 -13 42 -9 42 3 0 0 7 -7 15 -7 8 -10 15 -7 15 3 0 -3 26 -14
57 -11 32 -21 66 -24 78 -2 11 -16 58 -30 105 -15 47 -39 128 -55 180 -15 52
-40 136 -55 185 -15 50 -28 95 -29 100 -2 6 -6 17 -9 25 -3 8 -17 53 -30 100
-14 47 -58 193 -97 325 -40 132 -74 247 -77 256 -5 16 -22 18 -58 6 -11 -3
-34 -9 -52 -12 -17 -3 -69 -14 -115 -25 -46 -11 -94 -21 -108 -23 -33 -5 -36
-25 -12 -100 17 -51 39 -125 48 -159 1 -5 3 -10 4 -13 1 -3 3 -8 4 -12 1 -5
10 -35 20 -68 10 -33 19 -64 21 -70 1 -5 5 -17 8 -25 9 -24 31 -94 33 -106 4
-24 106 -360 114 -374 4 -9 11 -31 15 -50 3 -19 15 -59 26 -88 10 -28 18 -54
18 -57 0 -3 12 -44 26 -92 15 -48 29 -94 30 -102 2 -9 4 -16 5 -16 1 0 3 -7 5
-15 3 -17 43 -146 52 -170 3 -8 8 -23 10 -33 1 -10 12 -46 23 -80 41 -129 121
-393 125 -414 3 -12 10 -35 16 -50 6 -16 12 -35 14 -44 2 -9 24 -85 50 -170
26 -85 51 -168 55 -185 4 -17 12 -39 17 -49 6 -10 7 -31 3 -49 -8 -31 -45
-147 -57 -176 -3 -8 -7 -19 -8 -25 -2 -5 -27 -84 -57 -175 l-55 -165 -13 45
c-7 25 -17 49 -22 55 -4 5 -8 17 -8 27 0 16 -30 122 -47 168 -3 8 -8 23 -10
33 -1 10 -12 46 -22 80 -11 34 -31 100 -45 147 -14 47 -44 148 -67 225 -23 76
-42 144 -44 150 -1 5 -5 17 -8 25 -3 8 -7 24 -10 35 -3 11 -26 90 -52 175 -26
85 -51 169 -55 185 -4 17 -16 54 -25 84 -9 30 -18 62 -20 70 -2 9 -10 36 -18
61 -13 38 -58 185 -62 200 -1 3 -5 21 -9 40 -5 19 -11 40 -14 45 -4 6 -7 15
-8 20 -2 12 -78 268 -128 430 -1 6 -6 24 -10 40 -5 17 -16 55 -26 85 -10 30
-27 87 -38 125 -11 39 -31 104 -43 145 -13 41 -23 77 -24 80 -1 5 -14 48 -57
195 -11 39 -23 77 -26 85 -3 8 -6 20 -7 25 -6 25 -67 233 -75 255 -5 14 -18
59 -30 100 -12 41 -24 81 -26 88 -2 7 -3 13 -3 15 0 1 -5 16 -11 32 -7 17 -13
38 -15 48 -2 10 -15 55 -29 100 -14 45 -35 114 -46 152 -12 39 -23 77 -25 85
-2 8 -27 92 -55 185 -28 94 -53 177 -55 185 -2 8 -27 92 -55 185 -62 204 -56
183 -65 223 -4 18 -11 35 -15 37 -5 3 -73 -9 -152 -26 -79 -17 -150 -32 -158
-33 -8 -2 -25 -6 -36 -10 l-22 -7 30 -92 c27 -85 33 -107 43 -147 2 -8 4 -15
5 -15 1 0 3 -7 5 -15 1 -8 17 -60 34 -115 17 -55 35 -113 40 -130 5 -16 26
-83 46 -148 20 -65 38 -126 40 -135 2 -9 12 -44 23 -77 11 -33 30 -94 42 -135
12 -41 25 -82 28 -90 3 -8 6 -20 7 -26 2 -6 17 -58 35 -115 17 -57 45 -149 62
-204 16 -55 34 -116 40 -135 6 -19 17 -52 24 -73 8 -20 13 -38 13 -40 -1 -1
15 -56 35 -122 20 -66 43 -140 50 -165 8 -25 29 -92 47 -150 18 -58 33 -110
35 -116 1 -9 42 -145 72 -239 3 -11 7 -23 8 -27 1 -5 3 -10 4 -13 1 -3 3 -8 5
-12 1 -5 5 -15 8 -23 4 -8 8 -24 10 -35 2 -11 6 -27 9 -35 6 -16 30 -98 34
-115 1 -5 9 -30 17 -55 12 -36 56 -177 62 -200 11 -43 31 -106 45 -151 11 -30
21 -67 24 -82 2 -15 8 -31 11 -37 4 -6 24 -70 46 -143 21 -73 52 -177 69 -232
18 -55 33 -107 35 -115 5 -16 15 -50 125 -410 40 -129 76 -248 80 -265 5 -16
18 -60 29 -97 29 -93 62 -201 65 -213 2 -5 6 -17 9 -25 3 -8 11 -35 18 -60 16
-58 14 -51 44 -150 15 -47 38 -123 52 -170 29 -99 38 -113 70 -107 13 2 25 1
28 -3 2 -4 24 -4 49 0 24 4 52 3 60 -2 9 -5 16 -5 16 -1 0 5 31 8 69 6 l70 -2
26 77 c14 42 27 84 29 93 3 9 21 66 41 125 21 60 38 115 38 121 1 19 27 -5 27
-25 0 -13 35 -131 102 -342 11 -36 22 -72 23 -80 2 -8 4 -15 5 -15 1 0 3 -7 5
-15 1 -8 19 -69 40 -135 20 -66 41 -133 45 -150 5 -16 17 -59 29 -95 11 -36
33 -110 49 -165 17 -55 35 -113 42 -130 6 -16 11 -30 10 -30 -1 0 1 -7 4 -15
2 -8 14 -46 25 -85 12 -38 46 -153 77 -255 31 -102 63 -212 73 -245 l16 -60
166 -3 166 -2 74 222 c40 123 75 228 76 233 3 14 112 337 120 355 3 8 7 20 8
26 2 9 408 1238 430 1302 2 7 5 16 6 20 0 4 8 23 16 42 8 19 17 45 19 57 2 12
9 35 16 50 6 16 12 33 13 38 5 20 307 931 315 950 5 11 14 38 21 60 6 22 14
44 17 50 5 8 62 -148 76 -206 5 -17 67 -210 118 -364 17 -49 31 -94 32 -100 1
-5 13 -42 26 -81 l23 -71 196 1 196 1 27 80 c15 44 28 81 29 83 1 1 2 5 3 10
1 4 7 23 14 43 7 20 15 45 17 55 10 42 163 492 173 510 11 19 11 19 12 0 0
-16 82 -272 107 -336 4 -8 7 -17 8 -20 0 -3 21 -63 45 -135 24 -71 45 -133 46
-137 1 -5 3 -10 4 -13 1 -3 3 -8 4 -12 1 -5 4 -13 8 -19 4 -6 9 -22 12 -36 2
-15 9 -35 15 -46 5 -10 12 -30 15 -43 3 -13 26 -82 51 -154 26 -71 48 -134 49
-140 4 -19 68 -210 76 -230 5 -11 16 -42 25 -70 9 -27 18 -57 22 -65 3 -8 7
-19 8 -25 4 -17 187 -558 198 -585 6 -14 12 -31 14 -37 1 -7 5 -19 6 -25 2 -7
7 -20 10 -28 3 -8 52 -152 107 -320 56 -168 105 -314 110 -325 5 -11 45 -130
90 -265 45 -135 86 -257 92 -272 l10 -28 169 0 168 0 11 43 c6 23 22 76 35
117 36 113 86 280 90 299 2 9 20 68 40 131 20 63 38 123 40 133 2 10 17 62 34
115 43 141 123 405 125 417 2 6 11 37 21 70 10 33 20 65 21 70 2 6 26 87 55
180 28 94 58 196 68 228 9 32 21 58 26 58 7 0 50 -117 70 -191 2 -8 21 -67 42
-130 l38 -115 165 0 164 0 14 45 c7 25 22 73 33 108 44 144 60 198 64 212 2 8
4 15 5 15 1 0 3 7 5 15 3 12 58 200 69 235 2 6 4 13 5 17 1 4 9 27 17 50 9 24
17 50 19 59 5 25 65 220 76 249 5 14 11 34 13 45 3 11 17 58 31 105 26 83 40
131 143 470 28 91 65 212 82 270 18 58 33 110 34 115 1 6 4 15 7 20 6 9 18 51
24 81 2 6 17 56 33 110 52 169 112 364 147 479 18 61 56 187 85 280 28 94 53
177 55 185 2 8 11 38 20 65 9 28 27 88 41 135 13 47 27 92 31 100 3 8 7 20 9
27 1 6 17 58 34 115 18 57 34 110 35 118 2 8 4 15 5 15 1 0 3 7 5 15 4 13 24
82 124 410 16 52 48 158 71 235 23 77 44 147 48 155 3 8 6 17 6 20 1 3 5 11 9
18 5 6 6 12 3 12 -3 0 2 19 10 43 9 23 17 49 19 57 14 54 127 430 150 496 20
60 20 61 -22 69 -48 10 -39 8 -168 40 -60 15 -119 29 -130 31 -25 4 -23 9
-100 -256 -31 -107 -59 -202 -63 -210 -6 -18 -5 -13 -22 -70 -7 -25 -14 -50
-15 -55 -4 -16 -76 -257 -82 -275 -3 -8 -7 -19 -8 -25 -2 -5 -11 -37 -21 -70
-10 -33 -19 -62 -19 -65 -9 -38 -29 -103 -40 -132 -8 -21 -13 -38 -10 -38 2 0
-3 -16 -11 -35 -8 -19 -12 -35 -9 -35 3 0 1 -9 -5 -21 -6 -11 -13 -28 -15 -37
-4 -21 -54 -190 -62 -212 -3 -8 -7 -22 -9 -30 -2 -8 -26 -91 -54 -185 -29 -93
-65 -215 -81 -270 -17 -55 -34 -113 -39 -130 -19 -69 -82 -284 -100 -340 -26
-80 -50 -161 -100 -335 -23 -80 -53 -179 -65 -220 -13 -41 -35 -114 -49 -162
-14 -49 -37 -125 -51 -170 -14 -46 -27 -92 -30 -103 -6 -24 -137 -464 -166
-555 -11 -36 -21 -72 -23 -80 -2 -8 -6 -22 -9 -30 -6 -16 -57 -189 -60 -205
-2 -5 -6 -16 -10 -22 -5 -7 -6 -13 -3 -13 3 0 -4 -26 -15 -57 -11 -32 -21 -66
-23 -78 -2 -11 -11 -40 -19 -65 -13 -37 -32 -102 -43 -142 -1 -5 -3 -11 -4
-15 -1 -5 -2 -12 -1 -16 1 -5 -2 -6 -7 -3 -7 4 -43 102 -47 126 -1 10 -96 295
-105 315 -27 66 -42 137 -32 163 10 28 52 166 57 186 1 6 5 18 8 26 3 8 29 94
57 190 29 96 61 202 72 235 10 33 22 69 24 80 7 27 9 33 24 85 7 25 15 50 16
55 3 10 127 412 144 468 5 15 7 27 5 27 -2 0 3 17 11 37 9 20 17 44 19 53 2 8
16 56 31 105 15 50 29 95 30 101 1 7 18 63 37 125 56 183 89 292 91 303 1 6
15 52 31 101 16 50 30 97 31 105 1 8 7 29 13 45 7 17 22 64 35 106 l23 77 -61
13 c-33 7 -63 13 -66 14 -11 3 -118 26 -141 30 -22 4 -49 10 -74 15 -23 5 -33
-1 -38 -22 -11 -44 -25 -95 -77 -263 -28 -93 -53 -174 -54 -180 -1 -5 -9 -30
-16 -55 -8 -25 -14 -47 -15 -50 -31 -113 -63 -214 -81 -262 -7 -21 -12 -38 -9
-38 3 0 -2 -17 -9 -37 -15 -39 -47 -149 -46 -158 0 -3 -6 -21 -14 -40 -9 -20
-15 -39 -16 -43 -1 -12 -21 -86 -27 -102 -3 -8 -7 -19 -9 -25 -1 -5 -14 -48
-29 -95 -14 -47 -28 -94 -30 -106 -3 -12 -11 -40 -20 -63 -8 -23 -14 -44 -14
-46 1 -8 -39 -139 -61 -205 -10 -30 -26 -84 -36 -120 -18 -69 -34 -98 -34 -64
0 12 -3 24 -7 28 -4 3 -8 12 -9 19 -1 7 -21 68 -44 137 -23 69 -43 132 -45
140 -2 8 -10 33 -18 55 -15 39 -137 410 -142 430 -1 6 -5 17 -8 25 -3 8 -29
85 -56 170 -28 85 -77 236 -110 335 -32 99 -55 184 -51 190 5 6 9 15 9 20 1 6
17 62 37 125 19 63 56 180 80 260 25 80 49 156 54 170 9 27 64 202 65 210 2 9
57 185 77 245 10 33 21 67 23 76 2 9 33 113 70 230 37 118 85 271 106 341 22
70 40 130 40 133 -1 3 5 22 13 42 8 21 26 79 41 128 14 50 29 97 33 105 3 8 7
20 7 25 1 6 5 17 8 25 7 19 48 150 53 170 2 8 20 67 40 130 20 63 55 178 79
255 24 77 46 148 50 157 7 17 -14 26 -95 42 -37 7 -71 15 -105 23 -46 11 -89
20 -134 29 -28 5 -31 3 -42 -38 -7 -24 -13 -47 -15 -53 -1 -5 -23 -80 -48
-165 -45 -148 -50 -167 -60 -207 -3 -10 -17 -58 -31 -108 -15 -49 -29 -97 -31
-105 -2 -8 -22 -76 -44 -150 -22 -74 -42 -142 -45 -150 -4 -17 -69 -241 -91
-315 -8 -27 -17 -57 -19 -65 -4 -15 -72 -245 -79 -265 -1 -5 -6 -27 -11 -47
-4 -21 -10 -38 -14 -38 -6 0 -102 276 -108 313 -2 10 -10 31 -18 47 -9 17 -15
33 -15 37 0 11 -10 44 -19 68 -5 11 -27 76 -49 145 l-41 125 -195 1 -195 0
-14 -40 c-15 -40 -68 -201 -74 -221 -6 -25 -76 -234 -88 -265 -14 -35 -342
-1021 -350 -1050 -11 -42 -246 -743 -253 -756 -6 -11 -46 98 -131 353 -67 202
-125 375 -128 383 -3 8 -7 22 -9 30 -2 8 -14 44 -27 80 l-24 64 -194 1 -194 0
-58 -180 c-32 -99 -61 -187 -64 -195 -3 -8 -7 -19 -8 -25 -2 -5 -18 -57 -37
-115 -19 -58 -55 -165 -79 -239 l-43 -134 -171 514 c-94 283 -174 520 -178
527 -5 6 -6 16 -2 21 3 5 1 12 -3 15 -5 3 -15 27 -22 53 -7 27 -17 54 -23 61
-5 6 -7 12 -4 12 3 0 -4 24 -14 53 -11 28 -22 59 -24 67 -2 8 -64 197 -139
420 -75 223 -138 413 -141 423 -2 9 -13 46 -25 80 l-21 63 -197 0 -196 -1 -63
-190 c-35 -104 -82 -246 -104 -315 -54 -164 -98 -287 -98 -278 -1 4 -13 47
-27 95 -14 49 -27 95 -29 103 -2 8 -10 36 -19 61 -9 25 -17 54 -19 65 -2 10
-7 26 -10 34 -3 8 -13 40 -21 70 -15 58 -55 198 -82 287 -9 29 -17 58 -18 65
-2 7 -5 20 -8 28 -3 8 -22 74 -43 145 -43 154 -70 246 -97 335 -11 36 -22 76
-25 89 -2 14 -6 28 -9 33 -3 4 -7 16 -9 25 -2 10 -11 41 -19 68 -8 28 -27 95
-43 150 -23 81 -32 101 -49 103 -11 2 -22 1 -25 -2z m1105 -1796 c32 -91 59
-169 60 -175 2 -5 6 -17 9 -25 3 -8 15 -42 26 -75 11 -33 38 -114 61 -180 50
-145 50 -145 49 -148 -1 -1 6 -20 14 -42 26 -69 29 -77 82 -235 55 -159 100
-290 250 -725 47 -137 99 -289 115 -336 l29 -86 -70 -219 c-38 -121 -76 -235
-84 -254 -8 -19 -51 -150 -95 -290 -45 -140 -86 -259 -90 -263 -6 -7 -31 57
-45 118 -10 45 -19 75 -31 108 -8 20 -13 38 -12 40 2 4 -32 120 -47 160 -8 20
-13 37 -10 37 2 0 0 12 -6 28 -6 15 -12 34 -14 42 -4 16 -14 51 -70 240 -20
69 -41 141 -46 160 -11 40 -11 40 -29 100 -7 25 -14 50 -16 55 -1 6 -30 105
-64 220 -34 116 -68 235 -76 265 -8 30 -21 74 -29 97 -8 23 -17 52 -19 65 -11
48 -168 584 -177 600 -5 10 -9 27 -9 39 0 11 -4 28 -10 38 -5 10 -11 29 -14
42 -3 13 -9 38 -15 56 -5 17 -7 34 -4 36 2 3 6 11 7 19 4 26 29 93 39 106 5 6
7 12 4 12 -3 0 6 33 19 73 14 39 27 77 28 82 2 6 6 18 9 28 4 9 10 25 14 35 3
9 7 22 9 29 4 20 45 146 54 168 11 25 33 98 32 105 0 3 3 10 7 15 7 8 15 34
26 75 0 3 7 23 14 44 l14 39 27 -79 c14 -43 52 -153 84 -244z m2873 298 c0 -7
13 -51 29 -98 15 -47 29 -87 29 -90 1 -3 45 -136 98 -297 80 -241 95 -296 87
-317 -5 -14 -7 -26 -4 -26 2 0 0 -8 -5 -18 -6 -11 -12 -30 -15 -43 -3 -13 -14
-55 -26 -94 -12 -38 -34 -115 -50 -170 -16 -55 -38 -134 -50 -175 -12 -41 -23
-79 -24 -85 -5 -18 -37 -129 -54 -185 -9 -30 -18 -62 -19 -70 -1 -8 -16 -62
-33 -120 -60 -200 -91 -305 -95 -326 -3 -12 -15 -53 -26 -90 -17 -55 -23 -65
-30 -49 -12 31 -240 724 -244 743 -2 9 -14 46 -27 82 l-24 65 54 160 c30 88
55 165 57 170 2 9 6 22 22 63 3 9 7 19 8 22 5 21 89 267 94 275 3 6 6 15 7 20
1 6 25 78 54 160 28 83 53 157 55 165 3 8 29 87 60 175 30 88 55 161 55 163 0
9 17 -1 17 -10z m-1477 -1563 c24 -71 47 -136 53 -142 5 -7 7 -13 4 -13 -3 0
8 -37 24 -82 16 -46 32 -94 35 -107 3 -14 8 -29 12 -35 3 -6 7 -15 8 -21 2 -5
22 -68 47 -138 l44 -129 -69 -201 c-152 -451 -201 -593 -208 -605 -6 -12 -26
39 -36 91 -1 4 -2 8 -3 10 -1 1 -55 161 -119 355 -76 227 -114 356 -108 362 6
6 7 10 3 10 -4 0 3 24 14 53 11 28 20 53 20 54 0 2 1 8 4 15 90 273 129 394
130 398 9 44 90 268 96 263 3 -5 26 -66 49 -138z m840 -410 c4 -16 72 -218
149 -448 l141 -419 -30 -101 c-18 -56 -33 -111 -35 -122 -2 -11 -16 -60 -30
-110 -14 -49 -33 -114 -41 -144 -15 -54 -21 -59 -29 -25 -3 19 -110 344 -122
374 -4 8 -7 18 -8 23 -2 4 -4 9 -5 12 -1 3 -3 8 -4 13 -1 4 -28 86 -61 182
-32 96 -60 180 -61 185 -1 6 -16 47 -32 93 l-30 82 39 118 c22 64 43 124 46
132 3 8 7 18 7 22 1 3 4 10 9 14 4 4 7 14 7 23 0 8 14 53 32 100 35 93 31 93
58 -4z m-2580 -106 c0 -9 3 -19 8 -23 4 -4 7 -11 7 -14 1 -4 4 -16 7 -27 4
-11 23 -74 43 -140 20 -66 39 -127 42 -135 3 -8 7 -20 8 -26 3 -14 51 -168 80
-259 l23 -71 -63 -187 c-34 -102 -60 -189 -57 -192 3 -3 0 -5 -6 -5 -7 0 -11
-3 -10 -7 2 -10 -13 -64 -21 -78 -3 -5 -6 -15 -7 -20 -1 -10 -220 -675 -231
-705 -3 -8 -7 -19 -8 -25 -2 -5 -31 -93 -65 -195 -34 -102 -63 -189 -65 -195
-1 -5 -4 -17 -7 -25 -39 -108 -47 -123 -52 -110 -3 8 -16 53 -30 100 -13 47
-64 218 -113 380 l-89 295 143 430 c79 237 147 437 150 445 3 8 7 20 8 25 2 6
35 107 75 225 40 118 73 219 75 225 1 5 8 24 14 40 7 17 14 35 15 40 1 6 24
77 51 159 48 142 50 147 62 120 7 -16 12 -36 13 -45z m3495 -71 c25 -79 49
-150 52 -158 3 -8 7 -19 8 -25 2 -5 13 -41 26 -80 13 -38 24 -72 24 -75 1 -3
4 -12 8 -20 3 -8 20 -60 37 -115 17 -55 35 -109 40 -120 9 -21 19 -54 21 -70
1 -5 10 -31 20 -57 10 -27 16 -48 13 -48 -4 0 -1 -6 5 -14 7 -8 13 -22 15 -32
3 -14 144 -450 222 -684 3 -8 5 -16 5 -17 -1 -2 6 -20 14 -40 14 -37 14 -50 3
-83 -6 -15 -52 -180 -53 -190 -1 -3 -9 -30 -18 -60 -9 -30 -28 -95 -42 -145
-15 -49 -33 -108 -40 -130 -8 -22 -16 -51 -19 -65 -2 -14 -12 -45 -20 -69 -9
-24 -16 -52 -16 -62 0 -43 -18 -13 -50 84 -19 56 -35 104 -35 107 -13 49 -19
67 -26 75 -4 6 -7 12 -6 15 2 5 -158 498 -174 535 -10 25 -22 69 -20 73 1 1
-5 15 -14 32 -8 16 -16 37 -18 47 -2 10 -27 90 -56 178 -57 173 -58 176 -60
188 0 4 -8 21 -16 37 -9 17 -13 30 -10 30 2 0 -5 24 -16 53 -12 28 -22 59 -24
68 -3 15 -50 159 -62 189 -4 8 -5 19 -4 23 0 4 3 15 5 25 1 9 6 24 9 32 3 8
22 69 42 135 20 66 39 127 42 135 3 8 5 20 4 27 -1 6 3 14 9 18 5 3 10 16 10
29 0 12 3 26 7 30 4 3 8 13 9 20 1 8 21 74 44 147 22 74 43 142 46 152 3 9 7
17 9 17 2 0 24 -64 50 -142z m-3077 -1260 c22 -68 52 -163 67 -213 14 -49 29
-97 32 -105 4 -8 7 -17 8 -20 0 -3 6 -21 13 -41 10 -29 11 -75 1 -86 -1 -2 -2
-6 -4 -10 -1 -5 -4 -15 -8 -23 -5 -13 -53 -158 -61 -185 -1 -5 -11 -37 -21
-70 -11 -33 -20 -62 -20 -65 -1 -3 -4 -12 -8 -20 -3 -8 -53 -159 -111 -335
-282 -855 -344 -1039 -350 -1025 -3 8 -26 85 -51 170 -25 85 -54 182 -65 215
-56 179 -58 204 -20 290 7 16 70 205 75 225 1 3 4 12 8 20 3 8 31 92 62 185
31 94 59 177 62 185 7 18 5 12 27 85 10 33 23 66 28 73 6 6 8 12 5 12 -3 0 5
27 18 60 13 33 22 60 20 60 -3 0 4 20 15 45 11 25 20 47 20 50 1 6 3 12 31
100 13 39 24 75 26 80 10 39 156 465 158 465 2 0 21 -55 43 -122z m2665 -31
c21 -61 40 -116 41 -122 2 -5 6 -17 9 -25 3 -8 22 -62 41 -120 19 -58 89 -265
156 -460 67 -195 139 -409 161 -475 22 -66 43 -127 46 -135 4 -8 7 -18 7 -22
1 -3 4 -10 9 -14 4 -4 7 -17 7 -29 0 -12 3 -24 6 -28 3 -3 20 -45 36 -94 30
-88 36 -132 21 -155 -4 -7 -8 -17 -9 -23 -2 -10 -121 -430 -130 -454 -5 -17
-14 -10 -19 16 -2 10 -4 19 -5 21 -2 1 -3 5 -5 10 -1 4 -5 14 -8 22 -8 17
-197 580 -201 595 -5 22 -28 91 -36 110 -10 21 -109 320 -115 345 -2 8 -10 31
-18 50 -8 19 -16 40 -17 45 -2 6 -4 15 -6 20 -2 6 -24 73 -49 150 -26 77 -49
147 -52 155 -4 8 -7 18 -8 23 -2 4 -4 9 -5 12 -1 3 -3 8 -4 13 -1 4 -14 44
-29 88 l-28 81 21 74 c12 41 25 88 30 104 4 17 24 80 43 140 19 61 40 129 46
153 7 23 15 42 19 42 4 0 24 -51 45 -113z"/>
</g>
</svg>
