<?xml version="1.0" encoding="utf-8"?>
<!-- Generator: Adobe Illustrator 19.1.0, SVG Export Plug-In . SVG Version: 6.00 Build 0)  -->
<svg version="1.1" id="Layer_1" xmlns="http://www.w3.org/2000/svg" xmlns:xlink="http://www.w3.org/1999/xlink" x="0px" y="0px"
	 viewBox="-209 373.1 175.2 96.8" style="enable-background:new -209 373.1 175.2 96.8;" xml:space="preserve">
<style type="text/css">
	.st0{fill:#47D5CD;}
</style>
<g>
	<path class="st0" d="M-38.4,385.2L-56.2,445l-2.4-7.3l9.6-31.8l-4.6-1l-7.5,25.1l-6.3-19.2l11.2-36.1l-4.6-1l-6.3,21.6l-3.1-9.4
		h-4.9l-9.8,29.5l-3.9-11.7h-4.9l-3.6,11.1l-9.6-28.9h-4.9l-3.3,9.9l-6.4-22.1l-4.6,1l11.2,36.1l-6.3,19.5l-7.6-25.4l-4.6,1
		l9.7,32.1l-2.3,7l-17.8-59.8l-4.6,1l20,65.8h4.1l1.8-5.5l7.1,23.4h4.1l14.2-42.8l3.4,10.5h4.9l3.3-10l14.3,42.3h4.2l7.1-23.6
		l1.9,5.8h4.1l20-65.8L-38.4,385.2z M-72.4,392.2l3.3,10l-5.4,18.8l-3.8-11.5L-72.4,392.2z M-80.6,416.1l4,11.9l-1.9,6.7l-4.2-12.5
		L-80.6,416.1z M-109.6,392.2l10.1,29.4l-4.3,13.1l-9.3-32L-109.6,392.2z M-112.8,417.5l3,9.7l-7.3,22.1l-3-10L-112.8,417.5z
		 M-113,462.9l-2.2-7.4l7.4-22l2.2,7L-113,462.9z M-91.4,430.7l-3.4-10.3l3.4-10.3l3.5,10.3L-91.4,430.7z M-76.5,440.5l2-6.6l7.5,22
		l-2,6.9L-76.5,440.5z M-65.1,449.3l-7.3-22.1l3-9.7l7.2,21.9L-65.1,449.3z"/>
	<path class="st0" d="M-153.1,436.5c0-7-3.3-11.7-8.8-14.4c0-0.6,0.1-1.2,0.1-1.8c0-0.9-0.1-1.8-0.2-2.7c3.6-2.9,5.9-7,5.9-12.3
		c0-6.5-3-11.4-8.9-14c0.1-0.7,0.2-1.4,0.2-2.2c0-9.7-6.8-16-19.6-16h-14.7v16.2h-9.9v65.9h9.9v14.6h14.6c12.8,0,22.1-6.4,22.6-17.8
		C-156.5,449-153.1,443.7-153.1,436.5z M-194.5,422.7h0.2c1.4,0,2.7,0.1,3.9,0.2V435h-4.1V422.7z M-167,416.6
		c-2.3,1.3-5.2,2.1-8.7,2.1h-6.4c3.7-2.4,6.4-6,7.2-10.6C-170.9,409.6-168.1,412.4-167,416.6z M-185.8,449.8V439h1.4
		c2.7,0,5.2-0.3,7.5-0.8c0.2,0,0.3,0.1,0.5,0.1C-176.9,443.8-180.4,447.9-185.8,449.8z M-184,435h-1.8v-11.1
		c4.9,1.6,8.2,4.9,9.1,10.1C-178.8,434.6-181.3,435-184,435z M-185.7,416.6v-10.1h1.3c1.7,0,3.4,0.1,4.9,0.4
		C-179.9,410.9-182,414.5-185.7,416.6z M-179.8,402c-1.4,0.3-3,0.5-4.7,0.5h-1.2v-7.4C-182.6,396.5-180.6,398.9-179.8,402z
		 M-180,393.4h4.2c2,0,3.8,0.2,5.5,0.6c-0.9,2.5-2.6,4.7-5.1,6.2C-176.3,397.5-177.8,395.2-180,393.4z M-190.4,393.7v8.8h-4.1v-9.1
		C-193,393.4-191.7,393.5-190.4,393.7z M-190.4,406.5v11.8c-1.2,0.2-2.6,0.4-4,0.4h-0.1v-12.2H-190.4z M-190.4,439v11.9
		c-1.1,0.1-2.3,0.2-3.5,0.2h-0.6V439H-190.4z M-172.1,440.3c3,2,5,5,5.4,9.3c-2.5,1-5.4,1.5-8.7,1.5h-3.8
		C-175.4,448.6-172.9,445-172.1,440.3z M-179.3,422.7h3.7c3.3,0,6.3,0.4,8.8,1.3c-0.7,3.3-2.6,6-5.4,7.9
		C-173.3,427.8-175.8,424.8-179.3,422.7z M-166.5,420.3C-166.6,420.3-166.6,420.3-166.5,420.3C-166.6,420.3-166.6,420.3-166.5,420.3
		C-166.5,420.3-166.5,420.3-166.5,420.3z M-160.7,405.4c0,2.9-0.8,5.6-2.5,7.9c-2-4.5-6.1-7.4-11.6-9c0-0.1,0-0.3,0-0.4
		c3.9-1.7,7-4.5,8.6-8.3C-162.6,397.6-160.7,400.9-160.7,405.4z M-184.6,377.2c9.9,0,15.1,4.5,15.1,12c0,0.2,0,0.5,0,0.7
		c-1.9-0.4-3.9-0.6-6.2-0.6h-18.8v-12.1H-184.6z M-204.4,393.4h5.3v25.3h-5.3V393.4z M-204.4,451.1v-28.4h5.3v14.1v2.2v12.1H-204.4z
		 M-184,465.8h-10.5v-10.6h0.2h18.7c3.2,0,6.2-0.4,8.9-1.2C-167.8,461.3-174.4,465.8-184,465.8z M-162.3,447.1
		c-1.1-5.2-4.4-8.7-9.1-10.8c4.3-2.2,7.4-5.6,8.8-10.1c3.1,2.3,4.9,5.9,4.9,10.8C-157.8,441.2-159.4,444.6-162.3,447.1z"/>
</g>
</svg>
