<?xml version="1.0" encoding="utf-8"?>
<!-- Generator: Adobe Illustrator 19.1.0, SVG Export Plug-In . SVG Version: 6.00 Build 0)  -->
<svg version="1.1" id="Layer_1" xmlns="http://www.w3.org/2000/svg" xmlns:xlink="http://www.w3.org/1999/xlink" x="0px" y="0px"
	 viewBox="0 0 502.9 158.2" style="enable-background:new 0 0 502.9 158.2;" xml:space="preserve">
<style type="text/css">
	.st0{fill:#47D5CD;}
</style>
<g>
	<path class="st0" d="M125.5,12.7v30.2c0,6.3-2.3,11.2-6.5,13.7c0.2-1.4,0.4-2.9,0.4-4.4v-9.5v-1.6v-7.9v-11v-9.5v-1.6V3.2H116v7.9
		v1.6v9.5v11.2c0,6.3-2.3,11.2-6.5,13.7c0.2-1.4,0.4-2.9,0.4-4.4v-30h-3.4v30.2c0,2.1-0.3,3.9-0.7,5.7c-1.2,0.3-2.6,0.5-4,0.5
		c-1.4,0-2.7-0.2-3.9-0.5c-0.5-1.8-0.8-3.8-0.8-6V12.7h-3.4v30.4c0,1.4,0.1,2.7,0.3,3.9c-4.2-2.6-6.5-7.6-6.5-14V22.2v-9.5v-1.6V3.2
		h-3.4v7.9v1.6v9.5v11.3v7.9v1.6v9.5c0,1.4,0.1,2.7,0.3,3.9c-4.2-2.6-6.5-7.6-6.5-14V12.7h-3.4v30.4c0,8.4,3.9,14.9,10.9,17.4
		c2.4,6.4,8,10.6,16.1,10.6c8.1,0,13.8-4.1,16.3-10.7c6.9-2.5,10.9-9,10.9-17.7v-30H125.5z M115.2,58.1c-1,0.2-2,0.4-3.1,0.4
		c1.4-1,2.7-2.3,3.7-3.7C115.7,56,115.5,57.1,115.2,58.1z M115.5,45.7c-1.2,6-4.9,10-10.8,11c1.6-1.6,2.8-3.6,3.7-5.8
		C111.3,49.9,113.7,48.1,115.5,45.7z M101.6,52.1c1,0,1.9-0.1,2.9-0.2c-0.7,1.3-1.6,2.5-2.7,3.4c-1.1-0.9-1.9-2.1-2.6-3.4
		C99.9,52,100.7,52.1,101.6,52.1z M95,51c0.8,2.2,2,4.1,3.6,5.7c-5.7-1-9.3-5-10.6-10.8C89.8,48.2,92.1,49.9,95,51z M87.7,55.1
		c1,1.3,2.2,2.5,3.5,3.5c-1-0.1-2-0.2-2.9-0.4C88,57.1,87.8,56.1,87.7,55.1z M101.7,68.1c-5.7,0-9.8-2.5-12.1-6.7
		c0.8,0.1,1.6,0.2,2.5,0.2c1.7,0,3.3-0.2,4.8-0.5c1.5,0.3,3,0.5,4.7,0.5c1.7,0,3.3-0.2,4.8-0.5c1.5,0.3,3,0.5,4.7,0.5
		c1,0,1.9-0.1,2.9-0.2C111.7,65.6,107.5,68.1,101.7,68.1z"/>
	<path class="st0" d="M284.5,61.4l3.9-0.8l-19.5-18.8l4.4-3.9l11.2,10.9l3.9-0.8l-12.7-12.3L287,25.4h-4.5l-8.9,8.1l-4.7-4.5
		L287,12.7h-4.5L266.9,27l-4.7-4.6L287,0h-4.5l-24.2,22.2v-9.5V0h-3.4v12.7v12.7V26l-9.7,8.9V12.7h-3.4v48.2h3.4V35.7l9.7,9.5v3
		v12.7v12.7h3.4V60.9V48.4l13.2,12.9l0.1,0l13,12.7l3.9-0.8l-13.1-12.7l0,0l-13.2-12.7l4.4-4L284.5,61.4z M271.2,35.7l-4.4,4
		l-4.7-4.6l4.4-4L271.2,35.7z M264.5,29.1l-6.3,5.8v-8l2.1-1.9L264.5,29.1z M249.1,35.1l5.8-5.2v10.8L249.1,35.1z M260.1,45.8
		l-1.9-1.9v-8.3l6.3,6.2L260.1,45.8z"/>
	<path class="st0" d="M336.6,60.9h4.4h9.5h9.5l-0.5-3.1H350h-9.5H340v-6.4h10.5l-0.5-3.1h-10V12.7h-3.4v35.6h-6.2V3.2h-3.4v54.6
		h-6.2V12.7h-3.4v48.2h9.5v9.5h23.4l-0.5-3.1h-19.6v-6.4H336.6z M330.5,51.4h6.2v6.4h-6.2V51.4z"/>
	<path class="st0" d="M418,57.8h-9.5h-2.7v-6.4H418v-3.1h-12.2v-1.6h7.8l-0.5-3.1h-7.3v-6.4h7.8h9.5l-0.5-3.1h-9.5h-7.3v-6.4h7.8
		l-0.4-2.4h4.1v-3.1h-11.5v-6.4h2h9.5h9.5v-3.1h-9.5h-9.5h-5.3h-6.2V6.2h21V3.2h-24.4v9.5h-9.5v48.2h9.5v9.5H418v-3.1h-21.7v-6.4
		h6.2h6h9.5h9.5v-3.1H418z M402.4,48.3h-6.2v-1.6h6.2V48.3z M396.3,43.7v-6.4h6.2v6.4H396.3z M402.4,34.1h-6.2v-6.4h6.2V34.1z
		 M402.4,15.8v6.4h-6.2v-6.4H402.4z M386.7,15.8h6.2v6.4v11.9h-6.2V15.8z M386.7,57.8V37.2h6.2v14.2v6.4H386.7z M396.3,57.8v-6.4
		h6.2v6.4H396.3z"/>
	<g>
		<rect x="99.5" y="94.7" class="st0" width="3.4" height="48.2"/>
		<rect x="118.6" y="94.7" class="st0" width="3.4" height="48.2"/>
		<rect x="109" y="85.2" class="st0" width="3.4" height="67.2"/>
	</g>
	<path class="st0" d="M160.9,142.9h4.4h9.5h9.5l-0.5-3.1h-9.5h-9.5h-0.5v-6.4h10.5l-0.5-3.1h-10V94.7h-3.4v35.6h-6.2V85.2h-3.4v54.6
		h-6.2V94.7h-3.4v48.2h9.5v9.5h23.4l-0.5-3.1h-19.6v-6.4H160.9z M154.7,133.4h6.2v6.4h-6.2V133.4z"/>
	<path class="st0" d="M217.8,142.9h4.4h9.5h9.5l-0.5-3.1h-9.5h-9.5h-0.5v-6.4h10.5l-0.5-3.1h-10V94.7h-3.4v35.6h-6.2V85.2h-3.4v54.6
		h-6.2V94.7h-3.4v48.2h9.5v9.5h23.4l-0.5-3.1h-19.6v-6.4H217.8z M211.6,133.4h6.2v6.4h-6.2V133.4z"/>
	<g>
		<rect x="256.2" y="94.7" class="st0" width="3.4" height="48.2"/>
		<rect x="275.2" y="94.7" class="st0" width="3.4" height="48.2"/>
		<rect x="265.7" y="85.2" class="st0" width="3.4" height="67.2"/>
	</g>
	<path class="st0" d="M337.3,94.4h-3.6l-1.7,4.4l-4.9-12.3h-3.6l-4.9,12.3l-1.7-4.4h-3.6l-19.1,48.5h3.5l6.4-16.5h3.7l-3.4,8.5h3.5
		l3.3-8.5h4.7l-11.5,29.2h3.5l6.4-16.5h1.8l-1.5,3.8h3.5l1.5-3.8h11.4l1.7,4.3l3.4-0.8l-1.4-3.5h1.7l6.6,17l3.4-0.8l-11.5-28.9h4.6
		l3.5,9l3.4-0.8l-3.3-8.3h3.5l6.6,17l3.4-0.8L337.3,94.4z M325.2,90.3l5,12.9l-2.4,6l-0.8-2h-3.6l-0.8,2l-2.4-6.1L325.2,90.3z
		 M320.2,115.5h-4.8l3.2-8.1l2.4,6.2L320.2,115.5z M325.4,115.5h-0.2l-0.9-2.3l0.9-2.3l1,2.6L325.4,115.5z M322.9,118.5l0.7,1.7
		l-1.3,3.2h-2l1.9-4.9H322.9z M327,119.9l0.6-1.5h0.6l1.9,4.9h-1.7L327,119.9z M329.5,113.3l2.3-6l3.2,8.1h-4.6L329.5,113.3z
		 M305.1,123.4l9.8-25.2l1.9,4.9l-8,20.3H305.1z M312.3,123.4l1.9-4.9h4.7l-1.9,4.9H312.3z M315.4,136.1l3.8-9.7h1.9l-3.8,9.7H315.4
		z M320.7,136.1l3.8-9.7h1.5l3.8,9.7H320.7z M335,136.1h-1.7l-3.8-9.7h1.7L335,136.1z M333.6,123.4l-2-4.9h4.6l1.9,4.9H333.6z
		 M341.7,123.4l-8.1-20.5l1.8-4.7l9.8,25.2H341.7z"/>
	<path class="st0" d="M434.4,142.9h3.4l-3.9-48.2h-4l-0.6,1.5L427.9,80h-4l-6,14.7l0,0L405.9,124L394,94.7l-0.1-0.1L388,80h-4.1
		l-1.3,16.1l-0.6-1.4h-4.1l-3.9,48.2h3.2l3.3-43.4l1.5,3.7l-2,24.9h2.4l-2.4,29.7h3.2l3.3-43.4l1.5,3.7l-2,24.6h3.2l1.4-18.4
		l13.8,33.7h2.8l13.8-33.7l1.4,18.4h3.4l-2-25l1.4-3.3l3.3,43.4h3.4l-2.4-29.7h2.4l-2-25.2l1.4-3.4L434.4,142.9z M425.1,84.8l1.4,18
		l-3.3,8.1L421.8,93L425.1,84.8z M391.1,117.2l1.3-17.7l11.8,28.6l-4.3,10.6L391.1,117.2z M419.1,99.5l1.4,18l-8.6,21.2l-4.4-10.8
		L419.1,99.5z M386.5,84.8l3.6,8.7l-1.4,17.5l-3.5-8.5L386.5,84.8z M384.6,109.7L384.6,109.7l-0.1-0.1L384.6,109.7z M405.9,153.8
		l-4.5-11l4.4-10.7l4.5,10.9L405.9,153.8z M427,109.7L427,109.7l0-0.1L427,109.7z"/>
	<path class="st0" d="M189.7,68.3c-5.9,0-10.7-2.6-13.9-6.9c0.8,0.1,1.6,0.1,2.4,0.1c2.1,0,4-0.1,5.9-0.4c1.7,0.4,3.4,0.6,5.3,0.6
		c2.1,0,4.1-0.3,6-0.8c1.8,0.5,3.8,0.8,5.8,0.8c5.9,0,11.1-2.2,14.7-5l-0.5-3.2c-3.9,3.1-8.7,5.2-14,5.2c-0.1,0-0.2,0-0.3,0
		c1.1-0.6,2.1-1.2,3-1.9l-0.5-3.2c-2.4,1.9-5.1,3.3-8,4.2c-3.1-1.1-5.8-3-7.8-5.7c0.5,0,1,0.1,1.6,0.1c5.9,0,11.1-2.2,14.7-5
		l-0.5-3.2c-3.9,3.1-8.7,5.2-14,5.2c-1.4,0-2.7-0.1-4-0.4c-1.7-3.4-2.6-7.5-2.6-12.1c0-4.5,0.9-8.6,2.6-11.9
		c1.3-0.3,2.7-0.5,4.2-0.5c4.7,0,8.9,1.7,12.8,4.6l0.6-3.4c-3.6-2.5-8.2-4.2-13.4-4.2c-0.7,0-1.5,0-2.2,0.1c2.1-2.6,4.7-4.6,7.9-5.7
		c2.5,0.8,4.8,2,7.1,3.7l0.6-3.4c-0.6-0.4-1.3-0.8-1.9-1.2c0.1,0,0.1,0,0.2,0c4.7,0,8.9,1.7,12.8,4.6l0.6-3.4
		c-3.6-2.5-8.2-4.2-13.4-4.2c-2.1,0-4,0.3-5.9,0.8c-1.9-0.5-3.8-0.8-5.9-0.8c-1.9,0-3.6,0.2-5.3,0.6c-1.8-0.5-3.8-0.7-5.9-0.7
		c-1,0-1.9,0.1-2.8,0.2c3.2-4.1,8-6.6,13.9-6.6c4.7,0,8.9,1.7,12.8,4.6l0.6-3.4c-3.6-2.5-8.2-4.2-13.4-4.2
		c-8.2,0-14.8,4.1-18.6,10.7c-9,3.2-14.7,12.2-14.7,23.9c0,11.9,5.7,20.5,14.4,23.5c3.7,6.9,10.2,11,18.3,11c5.9,0,11.1-2.2,14.7-5
		l-0.5-3.2C199.8,66.2,195,68.3,189.7,68.3z M173.9,58.2c-0.9-1.8-1.5-3.8-1.9-5.9c1.7,2.7,3.9,4.9,6.5,6.5
		C176.9,58.8,175.3,58.5,173.9,58.2z M190.1,58.8C190.1,58.7,190.2,58.7,190.1,58.8c0.1,0,0.1,0,0.1,0
		C190.2,58.8,190.2,58.8,190.1,58.8z M187.7,56.9c-0.9,0.4-2,0.8-3.2,1.1c-6.5-1.9-11-7.6-12.5-15.3c2.7,4.2,6.6,7.2,11.2,8.6
		C184.4,53.5,185.9,55.4,187.7,56.9z M181.3,47.1c-3.9-2.1-6.7-5.7-8.4-10.4c1.6-4.7,4.6-8.3,8.5-10.4c-1.1,3.1-1.8,6.7-1.8,10.5
		C179.6,40.6,180.2,44.1,181.3,47.1z M171.8,31.3c1.4-8,6-13.8,12.7-15.8c1.2,0.3,2.4,0.7,3.3,1.2c-1.8,1.5-3.3,3.4-4.6,5.5
		C178.5,23.8,174.5,27,171.8,31.3z M178.8,14.8C178.8,14.8,178.8,14.8,178.8,14.8c-2.8,1.7-5.1,4.1-7,7c0.4-2.3,1.1-4.5,2-6.4
		C175.4,15,177,14.8,178.8,14.8z M160.2,36.7c0-8.9,3.4-15.9,9.3-19.5c-1,3-1.6,6.4-1.6,10.1c0,1.7,0.1,3.3,0.3,4.8
		c-0.2,1.5-0.3,3.1-0.3,4.7c0,1.7,0.1,3.3,0.3,4.8c-0.2,1.5-0.3,3.1-0.3,4.7c0,3.6,0.5,6.9,1.5,9.9
		C163.6,52.7,160.2,45.6,160.2,36.7z"/>
	<path class="st0" d="M45.5,47.2c0-5.2-2.4-8.6-6.4-10.6c0-0.4,0.1-0.8,0.1-1.2c0-0.7-0.1-1.3-0.1-2c2.6-2.1,4.3-5.2,4.3-9
		c0-4.7-2.2-8.3-6.5-10.2c0.1-0.5,0.1-1.1,0.1-1.6c0-7.1-5-11.7-14.3-11.7H11.9v11.8H4.7v48.2h7.2v10.7h10.8c9.4,0,16.1-4.7,16.4-13
		C43.1,56.2,45.5,52.4,45.5,47.2z M15.3,37.1h0.2c1,0,2,0.1,2.9,0.2V46h-3V37.1z M35.4,32.7c-1.7,1-3.8,1.5-6.4,1.5h-4.7
		c2.8-1.7,4.8-4.4,5.3-7.8C32.5,27.5,34.6,29.6,35.4,32.7z M21.7,56.9V49h1c2,0,3.8-0.2,5.5-0.6c0.1,0,0.2,0,0.2,0.1
		C28.1,52.5,25.6,55.5,21.7,56.9z M23,46h-1.3v-8.1c3.6,1.2,6,3.5,6.6,7.3C26.7,45.8,24.9,46,23,46z M21.7,32.7v-7.5h1
		c1.3,0,2.5,0.1,3.6,0.3C26,28.5,24.5,31.1,21.7,32.7z M26,22c-1,0.2-2.2,0.4-3.4,0.4h-1v-5.5C24,18,25.4,19.7,26,22z M25.9,15.7
		h3.1c1.5,0,2.8,0.2,4.1,0.4c-0.7,1.9-1.9,3.4-3.7,4.6C28.6,18.7,27.5,17,25.9,15.7z M15.3,15.7c1.1,0,2.1,0.1,3,0.2v6.4h-3
		L15.3,15.7L15.3,15.7z M18.3,25.2v8.7c-0.9,0.2-1.9,0.3-2.9,0.3h-0.1v-9H18.3z M18.3,49v8.7c-0.8,0.1-1.7,0.2-2.6,0.2h-0.4V49H18.3
		z M31.7,49.9c2.2,1.5,3.7,3.7,4,6.8c-1.8,0.7-3.9,1.1-6.3,1.1h-2.8C29.2,56,31,53.4,31.7,49.9z M26.4,37.1h2.7
		c2.4,0,4.6,0.3,6.4,0.9c-0.5,2.4-1.9,4.4-4,5.8C30.8,40.8,29,38.6,26.4,37.1z M35.7,35.3C35.7,35.3,35.7,35.3,35.7,35.3
		C35.7,35.3,35.7,35.3,35.7,35.3C35.7,35.3,35.7,35.3,35.7,35.3z M40,24.5c0,2.1-0.6,4.1-1.8,5.7c-1.5-3.3-4.4-5.4-8.4-6.6
		c0-0.1,0-0.2,0-0.3c2.8-1.2,5.1-3.3,6.3-6C38.6,18.8,40,21.2,40,24.5z M15.3,3.9h7.3c7.2,0,11,3.3,11,8.8c0,0.2,0,0.3,0,0.5
		c-1.4-0.3-2.9-0.4-4.5-0.4H18.3v0h-2.8c0,0,0,0,0,0h-0.2V3.9z M8,15.7h3.9v18.5H8V15.7z M8,57.9V37.1h3.9v10.4V49v8.8H8z M23,68.6
		h-7.7v-7.7h0.2c0,0,0,0,0,0h2.9v0h10.8c2.4,0,4.6-0.3,6.5-0.9C34.7,65.3,30,68.6,23,68.6z M38.9,54.9c-0.8-3.8-3.2-6.3-6.7-7.9
		c3.1-1.6,5.4-4.1,6.4-7.4c2.3,1.7,3.6,4.3,3.6,7.9C42.1,50.6,40.9,53.1,38.9,54.9z"/>
	<path class="st0" d="M500.8,130.5c0-5.2-2.3-8.6-7.1-11.5c-0.7-5.7-4.7-9-12.4-12.2c-1.2-0.5-2.3-1-3.3-1.5c0.3-4.5,4-8,9.5-8
		c4.1,0,7.3,1.1,10.1,2.7l0.5-3.4c-2.4-1.4-5.9-2.4-10.4-2.4c-3.5,0-6.6,1.1-9,3c-1.9-1-4.5-1.7-7.6-2c0.5-4.3,4.1-7.6,9.5-7.6
		c4.1,0,7.3,1.1,10.1,2.7l0.5-3.4c-2.4-1.4-5.9-2.4-10.4-2.4c-6.9,0-12.4,4.3-13.1,10.5c-6.8,0.5-11.9,5.2-11.9,11.7
		c0,6.4,3.2,9.6,12.1,13.5c1.1,3.8,4.3,6.4,10.5,9.2c0.1,0.4,0.1,0.9,0.2,1.3c-4.6-0.2-8.6-1.7-11.2-3.2l-0.5,3.4
		c2.8,1.4,6.7,2.7,11.4,2.8c-1.1,4.7-5.4,7.5-10.8,7.5c-5,0-9.3-1.6-12-3.3l-0.5,3.4c2.9,1.5,7.1,2.9,12.3,2.9
		c3.5,0,6.7-0.9,9.3-2.6c2.6,1,5.8,1.7,9.6,1.7c1.4,0,2.8-0.2,4.1-0.5c-0.8,5.1-5.3,8.2-10.9,8.2c-5,0-9.3-1.6-12-3.3l-0.5,3.4
		c2.9,1.5,7.1,2.9,12.3,2.9c7.8,0,14.4-4.6,14.7-12.5C497.9,139.6,500.8,135.7,500.8,130.5z M489.3,116.7c-0.4-0.2-0.7-0.3-1.1-0.5
		c-5.3-2.3-8.3-4.1-9.5-6.8c0.5,0.2,1,0.4,1.5,0.7C485,112.2,487.9,114.2,489.3,116.7z M490.3,121.2c0,3.6-1.7,6.4-4.4,8
		c-1.4-0.8-2.9-1.5-4.6-2.2c0,0,0,0,0,0c-1.3-3.8-4.7-6.5-10.1-9c-0.1-0.6-0.1-1.1-0.1-1.8c0-2.9,1.4-5.2,3.9-7
		c1,4.5,4.6,7.2,12.3,10.5C488.3,120.1,489.4,120.6,490.3,121.2C490.3,121.1,490.3,121.1,490.3,121.2z M471.2,98.3
		c1.9,0.2,3.6,0.7,5.2,1.4c-0.7,1.1-1.3,2.3-1.6,3.7C472.7,101.9,471.6,100.3,471.2,98.3z M459.1,106.7c0-4.5,3.3-8.1,8.5-8.5
		c0.4,3.6,2.1,6.1,5.6,8.4c-3.5,1.9-5.8,5.4-5.9,9.7C461.3,113.5,459.1,111.1,459.1,106.7z M479.2,139.4c1.3-1.6,2.2-3.4,2.6-5.6
		c1.2-0.2,2.3-0.4,3.3-0.8c3.1,2,4.7,4.1,5.1,7c-1.2,0.4-2.5,0.6-3.9,0.6C483.7,140.4,481.3,140,479.2,139.4z M493.5,138.2
		c-0.6-2.9-2.2-5.2-4.8-7.2c2.5-1.8,4.3-4.5,4.9-7.8c2.6,2,3.7,4.3,3.7,7.5C497.3,133.9,495.8,136.5,493.5,138.2z"/>
	<path class="st0" d="M80.4,93.4l-13,43.7l-1.7-5.3l7-23.2l-3.4-0.8l-5.5,18.4l-4.6-14.1l8.2-26.3L64,85l-4.6,15.9l-2.3-7h-3.6
		l-7.2,21.6l-2.9-8.6H40l-2.6,8.1l-7-21.2h-3.6l-2.4,7.3L19.7,85l-3.4,0.8l8.2,26.4l-4.6,14.2l-5.5-18.6l-3.4,0.8l7.1,23.4l-1.7,5.2
		l-13-43.7L0,94.2l14.6,48h3l1.3-4l5.2,17.1h3l10.3-31.1l2.5,7.9h3.6l2.5-7.6l10.4,30.8h3.1l5.2-17.3l1.4,4.3h3l14.6-48L80.4,93.4z
		 M55.4,98.5l2.5,7.5L54,119.6l-2.8-8.5L55.4,98.5z M49.5,115.9l3,8.7l-1.4,5l-3-9.2L49.5,115.9z M28.4,98.5l7.3,21.5l-3.1,9.5
		l-6.8-23.2L28.4,98.5z M26,117l2.2,7.1l-5.3,16.1l-2.2-7.3L26,117z M25.9,150.2l-1.6-5.4l5.4-16.1l1.6,5.1L25.9,150.2z M41.6,126.6
		l-2.5-7.5l2.5-7.6l2.5,7.5L41.6,126.6z M52.5,133.8L54,129l5.5,16.1l-1.5,5.2L52.5,133.8z M60.8,140.3l-5.4-16.2l2.2-7.2l5.3,16
		L60.8,140.3z"/>
	<path class="st0" d="M499.2,11.5l-15.3,25.1l-2.1-3.5l13.1-20.9l-3.6-0.7L480,30.1l-1.1-1.8l16-25.6l-3.6-0.7l-6,9.9l-1.9-0.4
		l-7.3,11.9L469,11.5l-1.8,0.4l-6-9.9l-3.5,0.7l16,25.6l-1.1,1.8l-11.3-18.6l-3.6,0.7l13.1,20.9l-2.1,3.5l-15.3-25.1l-3.5,0.7
		l17.1,27.4v20.5h3V42.7l5,7.3v20h1.2h1.8v-20l4-7.3v17.4h4V39.5l17-27.4L499.2,11.5z M474.9,44.3l-3.8-6.1l1.4-2.3l2.3,3.7V44.3z
		 M477.9,44.3v-4.7l2.2-3.7l1.5,2.3L477.9,44.3z"/>
</g>
</svg>
