<?xml version="1.0" encoding="utf-8"?>
<!-- Generator: Adobe Illustrator 18.1.1, SVG Export Plug-In . SVG Version: 6.00 Build 0)  -->
<svg version="1.1" id="Capa_1" xmlns="http://www.w3.org/2000/svg" xmlns:xlink="http://www.w3.org/1999/xlink" x="0px" y="0px"
	 viewBox="-495 359 32.8 52" enable-background="new -495 359 32.8 52" xml:space="preserve">
<path fill="#61cbc2" d="M-462.2,375.8c0-9.1-7.3-16.4-16.4-16.4c-9.1,0-16.4,7.3-16.4,16.4c0,7.8,12.2,28.7,15.6,34.3
	c0.2,0.3,0.5,0.5,0.8,0.5c0.3,0,0.7-0.2,0.8-0.5C-474.4,404.5-462.2,383.6-462.2,375.8z M-478.6,388.5c-7,0-12.7-5.7-12.7-12.7
	c0-7,5.7-12.7,12.7-12.7c7,0,12.7,5.7,12.7,12.7C-465.9,382.8-471.6,388.5-478.6,388.5z"/>
</svg>
